inDegrees=no
num_controls=7
num_derivatives=13
num_iterations=68
num_multipliers=7
num_parameters=0
num_slacks=7
num_states=26
objective=0.459522
objective_accelerations=0.018444
objective_balance=0.001110
objective_effort=0.010697
objective_height=0.425095
objective_ligament=0.004176
solver_duration=1033.591577
status=Solve_Succeeded
success=true
DataType=double
version=3
OpenSimVersion=4.5
endheader
time	/jointset/ground_pelvis/pelvis_tilt/value	/jointset/ground_pelvis/pelvis_tx/value	/jointset/ground_pelvis/pelvis_ty/value	/jointset/hip_l/hip_flexion_l/value	/jointset/hip_l/hip_adduction_l/value	/jointset/hip_l/hip_rotation_l/value	/jointset/back/lumbar_extension/value	/jointset/patellofemoral_l/patellar_flexion_l/value	/jointset/knee_l/knee_flexion_l/value	/jointset/knee_l/knee_adduction_l/value	/jointset/knee_l/knee_rotation_l/value	/jointset/ankle_l/ankle_angle_l/value	/jointset/subtalar_l/subtalar_angle_l/value	/jointset/ground_pelvis/pelvis_tilt/speed	/jointset/ground_pelvis/pelvis_tx/speed	/jointset/ground_pelvis/pelvis_ty/speed	/jointset/hip_l/hip_flexion_l/speed	/jointset/hip_l/hip_adduction_l/speed	/jointset/hip_l/hip_rotation_l/speed	/jointset/back/lumbar_extension/speed	/jointset/patellofemoral_l/patellar_flexion_l/speed	/jointset/knee_l/knee_flexion_l/speed	/jointset/knee_l/knee_adduction_l/speed	/jointset/knee_l/knee_rotation_l/speed	/jointset/ankle_l/ankle_angle_l/speed	/jointset/subtalar_l/subtalar_angle_l/speed	/forceset/tau_hip_flexion_l	/forceset/tau_hip_adduction_l	/forceset/tau_hip_rotation_l	/forceset/tau_knee_flexion_l	/forceset/tau_ankle_angle_l	/forceset/tau_subtalar_angle_l	/forceset/tau_lumbar_extension	lambda_cid13_p0	lambda_cid13_p1	lambda_cid13_p2	lambda_cid13_p3	lambda_cid13_p4	lambda_cid13_p5	lambda_cid14_p0	/jointset/ground_pelvis/pelvis_tilt/accel	/jointset/ground_pelvis/pelvis_tx/accel	/jointset/ground_pelvis/pelvis_ty/accel	/jointset/hip_l/hip_flexion_l/accel	/jointset/hip_l/hip_adduction_l/accel	/jointset/hip_l/hip_rotation_l/accel	/jointset/back/lumbar_extension/accel	/jointset/patellofemoral_l/patellar_flexion_l/accel	/jointset/knee_l/knee_flexion_l/accel	/jointset/knee_l/knee_adduction_l/accel	/jointset/knee_l/knee_rotation_l/accel	/jointset/ankle_l/ankle_angle_l/accel	/jointset/subtalar_l/subtalar_angle_l/accel	gamma_cid13_p0	gamma_cid13_p1	gamma_cid13_p2	gamma_cid13_p3	gamma_cid13_p4	gamma_cid13_p5	gamma_cid14_p0
1.5	-0.006509800583707003	0.1503419036978911	0.8645834772093951	0.2536965235089338	-0.4126511976257635	-0.3851486724091706	-0.1571761034696351	0.4597898323924768	0.4597898323924141	-0.1743428304033268	-0.1511456086244557	0.2316036887096827	0.07528302525786469	-0.2871066534095876	-0.1075817643271113	0.1269171565458062	-0.1221223222144436	0.240468439677382	-0.3152904345105432	0.3294849479902378	-1.097542125363898	-1.097542125363986	0.0002355687393389064	0.09141931796182391	-0.7089286243550613	-0.158536373603356	0.02049949348592782	0.06108654968423273	-0.01213428177927016	-0.1933341117369348	-0.03640500907028674	-0.02295118207673321	0.03032168732845767	-47.12395539312872	14.62260566731025	1.440514295711447	5.983880856352459	-537.798420603443	-40.19119136298206	-38.90177960712606	-0.1404551922592889	-0.09541745501917857	-0.1800186225944427	-0.03970522379966672	0.2086045608640082	-0.08166621162861017	0.233292148538044	-0.6772277521526647	-0.6772277521525578	-0.007119565162760804	0.08834038607421256	-0.4166662982771069	0.1032839895236919	-4.232515007044048e-08	5.259629684871615e-08	1.562175855801899e-07	1.957406970386922e-08	-5.252658678493714e-08	-1.280336608383266e-07	-1.35144260622222e-08
1.51	-0.009387674291766051	0.1492614889593291	0.8658433561765055	0.2524738299375516	-0.4102363366913006	-0.3883056310319896	-0.1538697860566879	0.448782328506808	0.4487823285067936	-0.1743404794951016	-0.1502275407510584	0.2244946843780073	0.07370320801105917	-0.2884274467919929	-0.1084835354120437	0.1250333774673084	-0.1223966557711736	0.2424742252555143	-0.3160595498620445	0.3317377224673332	-1.103800496410792	-1.103800496410825	0.00023823407688988	0.09217642764192202	-0.7127681550954277	-0.1574008630584853	0.02058127106182475	0.05918702120217755	-0.01215726603731365	-0.1914071011846481	-0.0325803141689975	-0.02322699702171923	0.02983591969172486	-45.85685729934623	14.43595622223842	1.566877590577461	5.378438358596174	-536.8877177763422	-40.39617751235485	-39.13911463238299	-0.1218025545318139	-0.08490579614363961	-0.1963545650769297	-0.01834514379112549	0.1921052899216975	-0.06828635855861806	0.2151482774566211	-0.5764161070400783	-0.5764161070318063	0.004526721282384064	0.06674426296589361	-0.3519847865674895	0.1225904271829819	-3.939885896175305e-08	5.996392640000095e-08	1.455707894669252e-07	1.966687879326811e-08	-4.459974736707799e-08	-1.135037086285527e-07	-1.241540853776649e-08
1.52	-0.01227753816231374	0.1481725867377352	0.8670836379499112	0.2512489834861567	-0.4078023099543313	-0.3914690312406511	-0.1505421652629405	0.437716986045435	0.437716986045492	-0.1743379885058497	-0.1493024321801154	0.2173504070739981	0.07213552703774495	-0.2895046859064151	-0.1092792609335017	0.1229977178048343	-0.1225528982151557	0.2443016001790015	-0.3165787516794574	0.333745624150884	-1.109109840500977	-1.109109840500955	0.0002635849371741087	0.09282745748155706	-0.7159832188218369	-0.1561091189050438	0.02066304863765328	0.05728749272012734	-0.01218025029508474	-0.1894800906324206	-0.02875561926771475	-0.02350281196670697	0.02935015205493335	-44.59437082158919	14.25251117085622	1.68999228711323	4.782258635439321	-536.0355038750896	-40.60619521721565	-39.36457676649754	-0.09174433866275193	-0.07420834232425758	-0.2103947393896864	-0.01608700125010418	0.1729224299349509	-0.03168350481096349	0.184317589829088	-0.4874223608108683	-0.4874223608108621	-0.002582460616125998	0.06712441798160598	-0.2917728954856213	0.1345307112379185	-3.510660521146002e-08	6.862408209685149e-08	1.294123545850111e-07	1.979065204796199e-08	-3.510304565245238e-08	-9.310806715524181e-08	-1.063863602974293e-08
1.53	-0.01517685194392404	0.1470762526449284	0.8683028432296266	0.2500230038321452	-0.4053509451535862	-0.3946363115056691	-0.1471957852659967	0.4266032286638155	0.4266032286638374	-0.1743352874365026	-0.1483713067136993	0.2101770539338897	0.07058143905126311	-0.2903149155774601	-0.1099706638196965	0.1208205284745367	-0.1226235199409923	0.2459384790722696	-0.3168336816744879	0.3354886187259355	-1.11347892487424	-1.113478924874202	0.0002756103316857346	0.09337888343135239	-0.718583029585944	-0.1546876411291414	0.02070093350217955	0.05546743168559811	-0.01220016785677038	-0.187455921683497	-0.02502131174604232	-0.02379503458412894	0.02890096334504635	-43.36366695948679	14.08407691814058	1.808063659069352	4.211775411746569	-535.2055250255091	-40.7880009299338	-39.57811663317664	-0.06919607167774895	-0.06406818411770798	-0.2248060716790206	0.0003696071857153312	0.1541123228129006	-0.015862064481276	0.1630269144919203	-0.387243472057361	-0.3872434720550617	0.002965068505405717	0.04635373288359024	-0.2284281434823351	0.1490577426726455	-2.936301615446107e-08	7.865754682336563e-08	1.07397803511407e-07	1.994732472828181e-08	-2.393836524751242e-08	-6.648013083942306e-08	-8.141748851678543e-09
